<svg width="512" height="512" viewBox="0 0 512 512" fill="none" xmlns="http://www.w3.org/2000/svg" role="img" aria-labelledby="title desc">
  <title id="title">Equity Transfer Review Skill logo</title>
  <desc id="desc">Two equity certificates connected by a transfer arrow, with a verification shield.</desc>
  <rect x="24" y="24" width="464" height="464" rx="96" fill="#F8FAFC"/>
  <rect x="36" y="36" width="440" height="440" rx="84" stroke="#102033" stroke-width="18"/>

  <path d="M102 108H214C227.255 108 238 118.745 238 132V286C238 299.255 227.255 310 214 310H102C88.7452 310 78 299.255 78 286V132C78 118.745 88.7452 108 102 108Z" fill="#FFFFFF" stroke="#102033" stroke-width="14"/>
  <path d="M298 108H410C423.255 108 434 118.745 434 132V286C434 299.255 423.255 310 410 310H298C284.745 310 274 299.255 274 286V132C274 118.745 284.745 108 298 108Z" fill="#FFFFFF" stroke="#102033" stroke-width="14"/>

  <circle cx="158" cy="166" r="28" fill="#C99A3D"/>
  <path d="M126 222H190" stroke="#102033" stroke-width="14" stroke-linecap="round"/>
  <path d="M126 258H198" stroke="#4F6F74" stroke-width="12" stroke-linecap="round"/>
  <path d="M318 222H386" stroke="#102033" stroke-width="14" stroke-linecap="round"/>
  <path d="M318 258H390" stroke="#4F6F74" stroke-width="12" stroke-linecap="round"/>
  <path d="M340 163L358 181L394 145" stroke="#2C8C79" stroke-width="16" stroke-linecap="round" stroke-linejoin="round"/>

  <path d="M230 198H288" stroke="#2C8C79" stroke-width="18" stroke-linecap="round"/>
  <path d="M286 170L322 198L286 226" fill="#2C8C79"/>

  <path d="M256 326L348 358V409C348 438 310 459 256 472C202 459 164 438 164 409V358L256 326Z" fill="#102033"/>
  <path d="M215 395L245 425L303 367" stroke="#F2C15F" stroke-width="20" stroke-linecap="round" stroke-linejoin="round"/>

  <path d="M145 78C145 65.85 154.85 56 167 56H345C357.15 56 367 65.85 367 78" stroke="#C99A3D" stroke-width="14" stroke-linecap="round"/>
  <circle cx="167" cy="78" r="10" fill="#C99A3D"/>
  <circle cx="256" cy="78" r="10" fill="#C99A3D"/>
  <circle cx="345" cy="78" r="10" fill="#C99A3D"/>
</svg>
